<svg width="927" height="211" viewBox="0 0 927 211" fill="none" xmlns="http://www.w3.org/2000/svg">
<path d="M175.733 210.472H893.182L893.045 117.501H927V52.3926H890.498V0.195933H456.055L276.423 0.215527L290.824 41.5967C269.702 37.7564 237.902 31.9763 222.463 29.1745C224.481 26.5882 245.348 0 245.348 0H80.8421L0 100.102V186.529H175.733V210.472Z" fill="#161616"/>
<path d="M89.8949 18.9072L18.9082 106.783V167.621H194.641V192.955H292.647V61.1701L199.716 44.261V105.098H138.878L206.475 18.9072H89.8949Z" fill="#F6F4EB"/>
<path d="M378.642 98.5937L390.986 59.8577H391.26L403.721 98.5937H451.098L474.982 30.3501V98.5937H525.004V74.2196H551.044V98.5937H601.046V19.1035H551.044V47.9449H525.004V19.1035H474.982V19.1427H429.604L418.632 61.19H418.377L408.228 19.1427H374.821L364.006 61.19H363.731L353.582 19.1427H303.051L330.717 98.5937H378.642Z" fill="#F6F4EB"/>
<path d="M709.084 77.766H656.848V70.3205H709.084V51.844H656.848V44.2614H709.084V19.1035H614.468V98.5937H709.084V77.766Z" fill="#F6F4EB"/>
<path d="M816.454 77.766H764.218V70.3205H816.454V51.844H764.218V44.2614H816.454V19.1035H721.838V98.5937H816.454V77.766Z" fill="#F6F4EB"/>
<path d="M871.59 71.3198V19.1035H829.21V98.5937H908.112V71.3198H871.59Z" fill="#F6F4EB"/>
<path d="M436.031 141.424C436.031 129.668 431.857 112.191 399.097 112.191H318.138V190.643H363.81V172.617H394.179C422.766 172.617 436.05 157.687 436.05 141.424H436.031ZM378.466 151.103H363.79V135.174H378.466C386.812 135.174 390.359 137.584 390.359 143.09C390.359 147.91 387.067 151.103 378.466 151.103Z" fill="#F6F4EB"/>
<path d="M669.623 135.272C669.623 120.44 657.612 112.191 637.117 112.191H551.592V186.195L524.142 112.191H451.784L422.942 190.643H469.496L472.925 180.63H503.157L506.077 190.643H597.304V165.367H597.558L618.935 190.643H672.953L641.584 158.216C655.75 157.236 669.662 150.868 669.662 135.252L669.623 135.272ZM478.098 159.117L487.581 130.452H487.953L497.691 159.117H478.098ZM611.293 149.457H597.264V133.744H612.057C620.149 133.744 623.95 135.723 623.95 140.66C623.95 146.479 621.678 149.457 611.293 149.457Z" fill="#F6F4EB"/>
<path d="M841.241 139.014H828.721C820.374 139.014 818.473 137.251 818.473 135.487C818.473 132.96 821.902 131.412 833.541 131.412C846.57 131.412 865.674 133.939 874.138 134.606V113.523C860.736 111.544 840.614 109.898 827.33 109.898C803.68 109.898 779.796 112.994 773.311 129.688V112.21H674.012V143.09H700.835V190.662H746.507V143.09H771.841C774.094 158.255 790.749 161.978 806.972 161.978H819.492C826.193 161.978 830.112 162.193 830.112 165.72C830.112 168.894 823.528 169.012 809.362 169.012C797.724 169.012 784.185 168.345 775.329 166.582V189.663C790.514 192.504 804.425 192.955 821.883 192.955C847.805 192.955 877.038 189.878 877.038 164.603C877.038 147.89 867.927 139.014 841.241 139.014Z" fill="#F6F4EB"/>
</svg>
