<svg width="872" height="630" viewBox="0 0 872 630" fill="none" xmlns="http://www.w3.org/2000/svg">
<path fill-rule="evenodd" clip-rule="evenodd" d="M867.739 603.417H827.285V613.412H872V627.873H804.922V564.722H871.364V578.971H827.285V589.178H867.739V603.417ZM600.502 566.209C594.536 563.658 586.656 562.6 577.075 562.6C560.461 563.023 548.755 567.701 541.94 577.262C538.104 582.585 536.185 589.173 536.185 597.036C536.185 604.475 538.316 610.438 542.364 615.751C548.967 625.322 560.673 630 577.711 630C590.921 630 601.138 627.238 607.958 621.492L615.409 612.994C618.6 608.105 620.083 602.364 620.083 595.982C620.083 581.516 613.703 571.521 600.502 566.209ZM596.878 596.401C596.878 605.121 593.688 610.862 587.292 614.047C584.949 615.539 581.971 616.174 578.564 616.174C572.173 616.174 567.059 614.047 563.869 609.803C560.668 605.972 559.396 601.718 559.396 596.401C559.396 591.083 560.668 586.829 563.657 583.22C567.059 578.542 572.168 576.415 578.564 576.415C585.156 576.839 590.27 579.389 593.46 583.855C595.818 587.464 596.878 591.718 596.878 596.401ZM524.479 605.121H488.699V627.868H466.341V564.717H527.669V578.966H488.699V591.088H524.479V605.121ZM743.594 581.516C739.545 584.924 737.849 590.014 737.849 596.401C737.849 601.713 739.333 605.972 742.099 609.37C745.3 613.624 750.196 615.751 756.37 615.751C760.843 615.751 765.103 614.47 769.147 611.497C771.277 609.803 772.559 607.676 773.619 605.126L794.917 607.242L791.504 615.116C785.336 625.111 773.407 630 755.946 630L737.849 627.45C722.296 622.56 714.421 612.354 714.421 596.401C714.421 587.903 716.975 580.67 721.872 574.712C728.899 566.637 740.403 562.378 756.37 562.378C776.608 562.378 789.384 568.971 793.847 582.151L772.983 585.982C771.968 583.269 770.102 580.956 767.663 579.389C764.451 577.45 760.77 576.422 757.016 576.415C751.696 576.415 747.006 578.331 743.594 581.516ZM703.775 584.924C703.775 577.907 701.221 572.59 696.324 568.971C692.498 566.209 686.738 564.717 678.651 564.717H632.436V627.868H654.794V604.909H667.146L679.933 627.868H704.835L689.292 602.782C693.764 601.29 697.379 599.163 699.514 596.612C702.291 593.422 703.775 589.591 703.775 584.924ZM680.993 584.924C680.993 588.956 677.803 590.66 671.836 590.66H654.799V579.384H673.966C676.521 579.384 678.227 579.596 679.721 580.664L680.993 584.924ZM173.122 592.363C180.578 594.914 184.202 599.803 184.202 607.237C184.202 611.491 183.137 615.111 181.007 618.301C176.11 625.741 165.035 629.577 148.003 629.577C135.656 629.577 127.135 627.238 122.026 622.56C118.619 619.365 116.488 615.121 115.423 609.158L137.781 608.311C138.427 612.989 143.107 615.539 151.623 615.539L159.29 614.047C161.421 612.565 162.486 611.285 162.486 609.37C162.486 607.041 161.209 605.549 158.013 604.48L130.971 598.533C122.879 595.347 118.619 590.025 118.619 582.59C118.619 577.913 120.32 574.082 123.515 570.044C128.836 564.722 137.776 562.383 150.133 562.383L169.296 564.722C176.752 567.272 181.431 572.595 183.137 580.675L161.204 581.733C160.138 577.913 156.519 576.209 150.133 576.209C143.319 576.209 140.123 577.913 140.123 581.098L140.976 583.225C142.041 584.717 145.449 585.987 152.264 587.469L173.122 592.363ZM188.453 611.491H209.109V627.868H188.453V611.491ZM74.5289 597.681C74.5289 607.242 73.0398 614.47 70.6975 618.301C65.589 626.164 54.7256 630 37.2645 630C24.9119 630 15.972 628.296 10.6463 625.111C3.61942 621.492 0 614.692 0 605.126V564.722H22.3628V600.66C22.3628 604.914 22.9988 608.099 24.0639 609.803C26.6234 614.047 31.3028 616.174 37.2696 616.174C41.9542 616.174 45.3616 614.692 47.9211 612.354C50.4753 609.803 51.7525 605.972 51.7525 600.231V564.717H74.5341L74.5289 597.681ZM78.3603 611.491H98.5929V627.868H78.3603V611.491ZM405.23 564.717H359.232V627.868H381.807V604.909H393.518L406.719 627.868H431.631L415.664 602.782C420.137 601.713 423.756 599.596 426.31 596.612C428.833 593.239 430.179 589.133 430.142 584.924C430.142 577.907 427.587 572.59 423.115 568.971C419.071 566.209 413.534 564.717 405.23 564.717ZM398.839 590.66H381.807V579.384H400.333C403.1 579.384 405.018 579.596 406.083 580.664C407.148 581.723 407.784 583.215 407.784 584.918C407.784 588.956 405.018 590.66 398.839 590.66ZM319.843 564.717H342.412V627.868H319.843V564.717ZM271.498 582.151L278.954 603.417H264.476L271.498 582.151ZM258.726 564.717L231.467 627.868H256.167L259.367 617.661H283.643L287.051 627.868H311.539L284.284 564.717H258.726ZM686.314 0L615.409 147.346L720.812 71.2259L686.314 0ZM727.627 82.4962L437.169 293.417L454.635 346.145L678.858 183.491L727.627 82.4962ZM666.934 208.577L458.89 359.537H549.396L618.17 309.576L666.934 208.577ZM462.515 398.237C462.515 406.745 459.314 414.19 453.146 420.138C447.189 426.307 439.733 429.493 430.783 429.493C422.055 429.493 414.604 426.307 408.425 420.138C402.464 414.19 399.268 406.745 399.268 398.237C399.268 389.311 402.458 381.861 408.425 375.913C414.604 369.966 422.055 366.77 430.783 366.77C439.733 366.77 447.184 369.966 453.146 375.913C459.314 381.861 462.515 389.311 462.515 398.237ZM476.351 412.698L497.861 479.463L566.857 429.498L510.002 388.247L476.351 412.698ZM141.183 71.2259L246.379 147.346L175.676 0L141.183 71.2259ZM182.703 183.491L407.355 346.145L424.821 293.417L134.151 82.4962L182.703 183.491ZM243.39 309.576L312.387 359.537H402.888L194.843 208.577L243.39 309.576ZM351.776 388.242L294.926 429.493L364.129 479.458L385.85 412.693L351.776 388.242ZM430.783 527.942L487.644 486.903L430.783 445.652L374.139 486.903L430.783 527.942Z" fill="#161616"/>
</svg>
