<svg width="1051" height="107" viewBox="0 0 1051 107" fill="none" xmlns="http://www.w3.org/2000/svg">
<path d="M3.5559 104.038C1.08066 104.038 0.00103974 101.663 1.18599 99.4866L72.8889 6.44237C74.6005 4.23253 77.056 2.40528 79.5378 2.40528H163.656C166.994 2.40528 168.199 5.12966 165.631 8.45431L96.6011 98.0222C94.0535 101.36 90.4328 104.038 87.0952 104.038H3.5559ZM111.235 104.038C108.754 104.038 107.7 101.663 108.865 99.4866L180.555 6.44237C182.267 4.23253 184.735 2.40528 187.204 2.40528H225.603C228.928 2.40528 230.139 5.12966 227.572 8.45431L158.541 98.0222C155.954 101.36 152.366 104.038 149.042 104.038H111.235ZM176.776 104.038C174.275 104.038 173.215 101.663 174.407 99.4866L246.096 6.44237C247.782 4.23253 250.257 2.40528 252.745 2.40528H281.375C284.706 2.40528 285.917 5.12966 283.35 8.45431L214.313 98.0222C211.766 101.36 208.145 104.038 204.853 104.038H176.776ZM255.471 104.038C258.802 104.038 262.396 101.36 264.93 98.0222L333.987 8.45431C336.548 5.12966 335.336 2.40528 332.012 2.40528H312.394C309.932 2.40528 307.457 4.23253 305.778 6.44237L234.049 99.4866C232.891 101.663 233.983 104.038 236.452 104.038H255.471ZM303.646 104.038C306.937 104.038 310.558 101.36 313.112 98.0222L382.162 8.45431C384.71 5.12966 383.498 2.40528 380.167 2.40528H366.382C363.907 2.40528 361.445 4.23253 359.766 6.44237L288.037 99.4866C286.878 101.663 287.971 104.038 290.407 104.038H303.646ZM371.339 104.038H338.161C335.685 104.038 334.606 101.663 335.771 99.4866L407.487 6.44237C409.166 4.23253 411.628 2.40528 414.123 2.40528H568.298C572.446 2.40528 575.013 5.85527 575.013 10.0111V98.0024C575.008 99.6004 574.373 101.132 573.246 102.262C572.118 103.393 570.591 104.031 568.996 104.038H543.322C541.727 104.03 540.2 103.391 539.073 102.261C537.945 101.131 537.307 99.6005 537.299 98.0024V85.2315C537.299 81.6495 536.97 80.2313 533.382 80.2313H398.402C395.901 80.2313 394.15 82.0256 392.379 84.176L391.984 84.7037L381.708 98.042C379.114 101.386 375.533 104.065 372.208 104.065H371.333L371.339 104.038ZM437.907 28.0724C436.262 28.0724 434.728 29.2994 433.576 30.777L417.743 51.3055C416.605 52.7897 417.348 54.0034 419.04 54.0034H533.382C536.996 54.0034 537.279 52.605 537.299 49.023V34.7745C537.299 29.8997 537.43 28.0724 533.382 28.0724H437.907ZM727.326 73.239C724.508 75.0068 722.514 76.7813 719.222 76.7813H693.713C690.421 76.7813 688.413 75.0068 685.609 73.239L636.486 42.0901C633.688 40.3222 631.371 41.5624 631.371 44.8936V98.0024C631.371 99.6032 630.736 101.138 629.607 102.27C628.477 103.402 626.945 104.038 625.347 104.038H599.654C598.057 104.035 596.527 103.398 595.398 102.267C594.269 101.135 593.634 99.6021 593.63 98.0024V8.44772C593.63 5.12965 596.349 2.41188 599.654 2.41188H627.171C630.462 2.41188 632.437 3.85652 635.248 5.64419L702.258 49.1286C705.036 50.9097 707.807 50.9097 710.592 49.1286L777.601 5.67057C780.405 3.87631 782.393 2.43827 785.705 2.43827H813.202C816.494 2.43827 819.193 5.15604 819.193 8.4741V98.0288C819.193 101.36 816.494 104.065 813.202 104.065H787.528C785.928 104.065 784.392 103.43 783.257 102.299C782.122 101.168 781.48 99.6326 781.472 98.0288V44.92C781.472 41.5887 779.194 40.3486 776.39 42.1165L727.49 73.1532L727.359 73.2192M1050.98 48.4557C1050.97 46.8588 1050.34 45.33 1049.21 44.202C1048.08 43.0741 1046.55 42.4383 1044.96 42.4331H945.97C944.377 42.4417 942.852 43.0786 941.725 44.2058C940.597 45.3331 939.958 46.8599 939.946 48.4557V56.9455C939.946 60.2702 942.678 63.1331 945.97 63.1331H1008.21C1012.37 63.1331 1012.17 64.9603 1012.17 69.8285V70.8642C1012.17 75.6995 1012.37 76.7615 1008.26 76.7615H881.548C880.759 76.7598 879.978 76.6022 879.251 76.2978C878.523 75.9933 877.862 75.5481 877.306 74.9874C876.75 74.4267 876.31 73.7617 876.011 73.0305C875.712 72.2992 875.56 71.516 875.564 70.7257V34.0093C875.564 30.7045 878.223 27.9801 881.548 27.9801H1044.96C1048.27 27.9801 1050.98 25.2755 1050.98 21.964V8.42793C1050.97 6.82979 1050.34 5.29958 1049.21 4.16952C1048.08 3.03945 1046.55 2.40075 1044.96 2.39209H843.866C842.273 2.40078 840.747 3.0399 839.621 4.17034C838.495 5.30078 837.861 6.831 837.856 8.42793V97.9892C837.856 101.32 840.555 104.025 843.866 104.025H1044.96C1048.27 104.025 1050.98 101.32 1050.98 97.9892V47.4267" fill="#161616"/>
</svg>
