<svg width="952" height="573" viewBox="0 0 952 573" fill="none" xmlns="http://www.w3.org/2000/svg">
<g clip-path="url(#clip0_364_45)">
<path fill-rule="evenodd" clip-rule="evenodd" d="M0 -164.585H952V787.875H0V-164.585Z" fill="white"/>
<path fill-rule="evenodd" clip-rule="evenodd" d="M589.145 76.836C574.06 62.0703 556.416 50.1739 537.074 41.7282C516.855 32.9525 495.499 28.7524 472.987 28.7524C450.481 28.7524 429.308 32.9525 409.088 41.7282C389.663 50.124 371.949 62.0248 356.83 76.836C341.569 92.1045 329.938 109.661 321.349 129.125C313.142 149.437 308.932 171.145 308.952 193.055C308.952 215.572 313.145 236.943 321.349 256.985C329.933 276.834 341.569 294.578 356.83 309.273C371.832 324.327 389.569 336.375 409.088 344.772C429.308 353.542 450.476 357.742 472.987 357.742C495.499 357.742 516.855 353.542 537.074 344.772C556.51 336.323 574.176 324.279 589.145 309.273C604.406 294.578 616.23 276.834 624.246 256.985C633.012 236.948 637.21 215.577 637.21 193.055C637.21 170.923 633.012 149.547 624.246 129.125C616.23 109.656 604.406 92.1045 589.145 76.836Z" fill="#EBE8DA"/>
<path fill-rule="evenodd" clip-rule="evenodd" d="M603.645 138.093C596.39 121.105 586.472 106.222 573.123 92.8652C560.304 79.9682 545.072 69.7228 528.297 62.7136C510.759 55.0793 492.441 51.2646 472.987 51.2646C453.532 51.2646 435.412 55.0843 417.864 62.7136C400.696 69.9674 385.825 79.8895 372.851 92.8652C359.496 106.222 349.584 121.11 342.333 138.093C335.276 155.649 331.463 173.966 331.463 193.05C331.463 212.513 335.276 230.831 342.333 248.392C349.475 265.307 359.84 280.668 372.851 293.619C385.82 306.595 400.696 316.517 417.864 323.776C435.412 331.41 453.532 335.22 472.987 335.22C492.441 335.22 510.759 331.41 528.297 323.776C545.072 316.764 560.304 306.517 573.123 293.619C586.472 280.258 596.39 265.375 603.645 248.392C610.89 230.835 614.708 212.518 614.708 193.05C614.708 173.971 610.885 155.649 603.645 138.093Z" fill="#F6F4EB"/>
<path fill-rule="evenodd" clip-rule="evenodd" d="M564.347 107.373L557.867 98.9728L556.341 95.1582L555.58 92.8703L548.71 91.7289C544.705 92.8703 538.985 98.2119 532.12 108.139C522.578 121.881 514.573 131.803 507.322 138.103C502.364 142.303 496.644 144.971 490.925 145.737C489.567 145.768 488.233 145.366 487.117 144.591C485.206 143.449 484.06 140.015 484.06 134.669L494.363 123.027L497.035 113.485C497.035 111.578 495.123 110.812 491.691 111.198L483.3 112.724L477.58 114.632L475.674 112.349L471.096 108.144C467.663 105.471 464.996 105.856 463.85 109.671L463.09 117.305C452.026 122.651 446.683 126.847 446.683 129.9C446.683 132.188 447.828 134.1 449.735 135.054L461.178 138.869L460.413 144.971L455.834 145.352C449.35 144.591 443.625 142.303 439.24 138.103C432.755 132.564 424.364 122.646 414.442 108.139C409.483 100.89 403.759 95.1631 397.659 91.7289L394.987 90.5825L391.555 90.9679L389.648 93.2558V96.3144L387.362 99.7486L381.638 107.383L369.048 124.173L358.365 144.591C353.407 155.279 350.355 167.869 349.209 181.991C348.063 195.728 348.824 208.704 351.495 221.304C356.074 241.153 364.47 258.324 376.674 273.019L382.398 279.507L384.304 281.419L386.596 281.227C387.357 279.888 386.596 278.746 384.69 276.839L380.877 271.878C376.284 265.335 372.445 258.293 369.434 250.887C362.183 232.377 361.418 222.07 366.381 220.162C369.819 218.636 374.012 222.07 378.97 230.085L382.403 236.192C383.544 239.626 385.075 240.773 386.216 240.007C387.357 239.626 387.357 238.48 386.976 237.333L384.69 233.899L381.638 226.265L377.444 211.762C375.153 199.547 376.299 192.304 380.497 189.63C384.695 186.957 390.034 189.25 396.138 196.879L401.097 204.513L404.91 214.436C405.29 217.104 406.055 218.25 407.201 218.25C409.108 217.87 409.108 216.343 407.962 213.675L407.201 206.04L407.962 198.787C409.103 196.113 410.634 194.211 412.54 193.44C416.738 192.299 420.551 194.211 423.984 199.167C428.182 204.894 430.088 212.528 429.708 222.065L427.036 225.884C421.692 228.172 419.025 230.841 419.405 233.899C419.79 237.714 420.931 240.768 423.218 242.675C434.281 237.333 442.48 236.572 448.209 240.007C452.782 242.675 457.36 251.268 461.939 265.385C466.517 279.507 469.569 294.005 470.715 309.273L471.096 314.234L471.476 319.195C471.096 321.108 471.861 321.869 473.002 321.869C474.528 321.869 475.294 321.108 474.908 319.195L475.674 309.273C476.815 293.624 479.867 279.314 484.065 265.953C488.263 252.024 492.841 243.821 497.415 240.382C502.759 236.568 511.15 237.328 522.213 242.29C525.26 240.763 526.786 238.089 527.172 233.894C527.172 230.46 524.5 227.787 519.156 225.88C517.63 225.114 516.869 223.587 516.494 221.679C516.494 212.133 518.395 204.884 522.213 199.157C525.646 193.816 529.458 191.908 533.651 193.05C535.563 193.816 537.084 195.723 538.042 198.396L539.376 206.03L538.042 213.665C537.089 216.333 537.474 217.474 538.995 217.86C539.939 218.24 540.897 217.094 541.282 214.426L545.48 204.118L550.246 196.869C556.351 189.24 561.309 186.567 565.507 189.24C569.705 191.913 570.851 199.543 568.94 211.757L564.742 226.26L561.309 233.514L559.408 236.948C559.023 238.475 559.023 239.241 559.783 239.621C560.919 240.382 562.455 239.241 563.601 236.187L567.409 230.08C572.367 221.689 576.565 218.25 579.998 219.777C584.957 222.065 583.806 232.372 576.565 250.502C573.894 258.324 570.086 265.385 565.502 271.873L561.304 276.834C559.403 278.361 559.018 279.507 559.778 280.649L561.69 281.222L563.601 279.314L569.32 272.634C581.909 257.751 590.301 240.763 594.499 221.299C597.161 208.704 598.306 195.728 597.161 181.986C596.025 167.864 592.587 155.274 587.629 144.586L576.941 124.168L564.347 107.373Z" fill="black"/>
<path fill-rule="evenodd" clip-rule="evenodd" d="M560.91 111.188L553.279 101.266L552.143 98.5924L551.768 97.0655C551.383 95.9241 550.232 95.9241 549.096 97.0655L544.32 101.646C538.611 107.754 533.257 117.295 529.069 129.885L523.725 145.342L519.142 152.976C517.615 154.888 515.709 156.03 513.047 156.41L501.984 154.117L489.77 149.922C485.962 149.156 484.811 149.156 486.723 150.303C497.401 156.791 500.072 169.386 494.738 188.084L488.634 206.787L481.379 223.962C476.04 237.699 473.373 251.634 472.988 266.517C472.988 259.268 471.847 250.873 469.94 241.524C467.263 229.304 463.836 221.675 460.018 218.24C456.586 215.567 452.388 214.806 448.194 215.953C443.996 217.094 440.756 219.767 438.845 224.348C439.991 214.806 441.324 209.079 443.996 207.557H450.096L460.393 212.138L455.815 200.304L451.237 186.947C449.33 177.025 449.33 168.625 452.002 161.757C453.578 158.212 456.251 155.268 459.628 153.361L465.732 151.074L467.639 149.542L466.873 144.2L465.732 142.293L465.347 147.635L463.441 148.776L460.389 149.161C454.669 149.542 449.325 151.454 444.367 154.122C440.747 156.415 436.929 157.176 433.496 156.796C430.931 156.388 428.615 155.025 427.012 152.981L422.828 145.727L418.25 131.027C414.052 118.432 408.333 108.51 401.848 101.641L397.27 97.0606H394.217V98.5875L392.686 101.261L385.821 110.036L374.758 126.827C366.747 142.288 362.929 157.552 362.554 172.435C362.169 189.611 364.461 202.586 369.804 212.123L370.185 211.743C366.752 200.294 365.606 187.698 366.752 173.576C367.513 163.654 369.809 153.347 374.002 142.283L385.446 118.807C383.539 127.968 383.539 138.849 384.685 152.205C386.592 168.615 390.409 181.971 396.889 192.279H397.275C393.076 180.064 390.409 165.942 389.644 150.293C389.259 136.937 390.029 125.68 392.316 116.139L395.368 106.978L398.42 104.305L402.233 108.119L406.046 115.753C409.478 123.773 411.39 132.544 412.531 141.132L417.109 163.654C419.016 170.523 422.068 174.723 425.5 176.249C428.933 177.776 432.37 177.01 436.563 174.342C440.381 171.669 442.86 168.235 444.382 164.035C443.241 169.762 442.475 174.342 442.855 178.537C443.236 182.737 444.762 187.698 447.054 193.04L453.919 205.635L447.054 202.201L443.616 201.44C440.756 201.055 438.47 202.967 437.324 207.162C435.418 212.123 434.652 218.611 434.652 226.626C434.272 228.153 433.511 229.294 432.365 229.679C426.261 230.821 423.594 233.109 424.735 236.548L438.85 233.114C438.47 230.06 439.996 227.011 442.47 223.957C445.522 220.518 448.955 219.757 453.153 221.284C458.492 223.572 463.07 230.826 466.503 243.421C469.555 253.536 471.462 265.365 472.227 278.727L472.988 298.956L474.133 278.731C474.519 265.37 476.425 253.541 479.482 243.426C482.915 230.831 487.488 223.577 492.832 221.289C497.03 219.762 500.463 220.523 503.895 223.962C506.557 227.016 507.703 230.065 507.318 233.119L521.438 236.172C522.964 233.499 520.678 231.211 514.183 229.689C512.657 229.304 511.896 228.158 511.896 226.636L509.224 207.172C507.698 202.972 505.416 201.065 502.744 201.45L498.546 202.977L493.588 205.27L498.161 196.108C501.594 188.86 503.505 181.225 503.505 173.976L501.979 163.674C504.266 169.015 506.552 172.45 508.459 174.362C510.365 176.274 512.267 177.035 514.563 177.411C516.85 177.796 519.137 177.03 521.043 175.123C524.1 172.455 526.762 167.874 529.059 161.386L533.632 141.157C535.544 131.042 537.45 122.266 539.919 115.778L544.31 108.144L547.55 104.329L550.607 107.002L554.04 116.164C555.941 125.705 556.712 136.961 556.326 150.318C555.941 165.967 553.269 180.089 548.696 192.304H549.081C555.561 181.996 559.384 168.64 561.285 152.23C562.431 138.874 562.431 127.993 560.524 118.832L571.973 142.308C575.812 152.379 578.373 162.892 579.593 173.601C580.739 187.723 579.218 200.313 575.786 211.767L576.161 212.148C581.505 202.987 584.177 189.63 583.792 172.459C583.416 158.337 579.218 143.454 571.588 127.993L560.91 111.188Z" fill="#EBE8DA"/>
<path fill-rule="evenodd" clip-rule="evenodd" d="M469.94 123.017L467.649 126.456C467.263 127.217 468.029 127.598 469.175 127.983L473.753 128.363C475.659 128.363 476.42 127.983 476.8 127.217L475.659 124.163L469.94 123.017ZM482.149 121.871L482.91 125.69L485.196 123.017L485.962 120.344L483.665 120.729L482.149 121.871Z" fill="#EBE8DA"/>
<path fill-rule="evenodd" clip-rule="evenodd" d="M934.946 531.003C933.024 529.073 930.423 527.975 927.7 527.944C924.653 527.944 921.981 529.091 920.07 531.003C918.158 533.098 917.022 535.579 917.022 538.637C917.022 541.31 918.158 543.974 920.07 545.886C922.356 547.798 925.028 548.945 927.7 548.945C930.372 548.945 933.044 547.798 934.946 545.886C936.857 543.974 938.003 541.31 938.003 538.637C938.003 535.579 936.852 533.098 934.946 531.003ZM927.7 529.471C929.987 529.471 931.898 530.242 933.795 532.144C935.706 534.057 936.467 535.964 936.467 538.637C936.467 541.31 935.706 543.213 933.795 544.745C931.894 546.647 929.987 547.408 927.7 547.408C925.028 547.408 923.117 546.647 921.211 544.745C919.299 542.832 918.549 540.925 918.549 538.637C918.549 535.964 919.299 534.052 921.211 532.144C923.117 530.242 925.028 529.471 927.7 529.471Z" fill="black"/>
<path fill-rule="evenodd" clip-rule="evenodd" d="M932.274 535.964L930.373 533.291L927.315 532.53H923.117V544.364H925.414V539.789H926.94L929.227 540.164L930.373 542.837V544.359H932.274V541.686L931.513 539.784L929.612 539.013L931.138 538.252L932.274 535.964ZM926.94 534.057L929.612 534.442L930.373 536.345L929.227 537.881L927.315 538.257H925.414V534.057H926.94ZM416.718 450.663C416.338 428.921 416.338 415.367 417.099 408.682L415.958 408.306L410.999 411.548L402.603 410.594C389.265 405.384 374.911 403.298 360.642 404.497C351.871 404.872 343.47 406.784 335.652 410.594C327.641 414.028 320.395 419.182 313.718 425.477C300.181 439.604 293.696 457.922 294.071 480.246C294.451 501.998 301.316 519.179 315.432 531.389C328.787 543.223 345.376 548.569 365.596 547.803C379.706 547.418 391.915 543.603 402.218 536.735C410.229 531.774 415.953 525.291 419.766 518.032L422.818 511.935L420.907 510.788C414.422 520.335 406.406 527.959 396.874 533.113C388.103 537.506 378.18 539.413 367.502 538.652C354.913 538.267 344.235 532.545 335.844 522.237C327.068 511.169 322.302 496.671 321.921 479.303C321.349 460.224 324.974 444.58 332.792 431.985C341.183 418.629 353.012 411.755 367.888 411.563C379.711 410.994 389.629 414.429 398.405 421.677C407.181 429.312 412.52 438.858 414.427 450.678H416.718V450.663ZM147.021 436.926C145.495 427.765 140.921 420.511 132.91 415.367C124.707 409.067 113.076 406.394 99.1481 406.779L44.5981 407.155V409.636L48.0306 410.214L52.6089 411.741L58.7134 415.55C60.6198 417.463 61.3804 419.37 61.3804 422.033V528.705C61.3804 532.525 58.3282 535.964 52.6089 539.398L44.2178 541.686V543.974L78.3603 543.598L114.029 544.359C127.952 543.974 139.015 540.55 147.406 535.005C156.182 528.325 161.141 519.93 161.521 509.247C161.907 498.178 158.089 488.632 149.317 481.383C141.306 474.702 132.15 471.268 121.66 470.883C129.097 469.736 135.202 466.683 140.161 461.721C146.26 455.243 148.552 447.224 147.021 436.926ZM112.878 420.511C118.602 425.472 121.655 432.346 121.655 440.741C121.655 450.287 119.363 457.531 114.785 461.731C109.06 466.692 99.9087 468.224 86.5539 467.078V415.55C88.8406 414.414 91.5125 414.023 94.5648 413.648C101.82 413.648 107.924 415.936 112.878 420.511ZM134.051 506.578C134.436 512.3 133.671 516.886 131.764 521.086C127.186 531.384 117.842 537.106 102.961 537.491C91.8978 537.491 86.5588 533.291 86.5588 524.52V475.858L98.3875 474.712C112.498 475.858 122.8 481.002 129.093 490.934C132.038 495.647 133.744 501.029 134.051 506.578ZM901.001 409.067V407.155H843.201V409.067L851.602 411.741C856.936 414.414 859.608 418.223 859.608 423.184V528.705C859.608 533.098 856.936 536.34 851.602 539.398L843.201 542.072V543.974H901.001V542.072L892.985 539.398L887.651 535.579C885.74 533.676 884.594 531.379 884.594 528.705V422.804C884.594 418.604 887.266 414.784 892.985 411.736C896.042 410.589 898.704 409.636 901.001 409.067ZM624.626 407.733L606.693 407.155L560.909 407.733V409.067L568.925 411.741L574.269 415.55C576.17 417.463 577.316 419.37 577.316 422.033V529.091C577.316 531.764 576.17 533.676 574.269 535.574L568.925 539.008L560.909 542.067V543.969H616.605V542.067L609.36 539.393L604.401 535.959C602.875 534.047 601.922 532.14 601.922 529.466V476.995C601.922 475.858 602.875 475.083 603.823 475.083C607.448 475.083 612.032 478.517 617.751 484.822L629.189 501.612L639.877 520.691L651.316 536.72C655.706 541.306 660.275 543.593 664.858 543.969C674.775 545.115 685.078 545.115 695.37 544.354V542.067C690.036 541.306 685.453 539.393 682.021 536.72L674.39 527.559L664.097 511.144L652.649 492.827C645.211 480.992 637.205 474.317 628.814 472.414C639.107 472.029 647.508 468.98 653.8 463.253C661.055 457.146 664.478 449.512 663.342 440.351C662.196 430.804 657.623 423.17 649.799 417.255C642.549 411.548 634.153 408.301 624.626 407.733ZM610.886 413.648C618.131 414.023 624.246 416.311 629.194 421.089C634.153 425.858 636.825 432.341 637.21 440.741C637.595 448.375 636.825 454.097 634.538 458.297C632.251 462.117 628.058 464.79 621.949 466.692L611.271 467.839L602.495 467.078V415.367L610.886 413.648ZM817.647 427.385C803.912 414.789 785.604 408.306 763.097 407.155L726.663 407.733L697.292 407.155V409.067L705.308 411.741L710.641 415.367C712.553 417.27 713.313 419.375 713.313 422.038V529.096L710.641 535.969L705.308 539.403L697.292 541.691V543.979L762.337 544.75C786.75 545.125 806.209 538.257 820.319 523.374C826.119 516.829 830.76 509.343 834.045 501.237C836.716 493.603 838.252 485.786 838.252 477.39C838.252 456.77 831.382 439.98 817.647 427.385ZM764.999 415.367C778.359 417.848 788.651 424.711 796.667 435.019C804.683 445.702 808.496 458.683 808.871 474.327C809.256 490.173 806.584 503.53 800.865 513.827C794.761 525.662 785.219 533.291 771.879 536.345L761.576 537.491L751.466 537.106C747.268 535.969 744.211 535.01 743.075 533.681C740.403 531.384 738.877 527.574 738.492 521.847V415.55C745.742 413.455 754.899 413.455 764.999 415.367ZM240.292 405.253L219.499 405.821L177.163 526.418C175.251 532.14 171.819 535.964 167.241 538.637L156.558 542.072V543.974H202.336V542.072L193.18 538.637C190.508 536.725 188.981 534.437 188.981 531.003L191.653 519.559L203.482 484.827H241.818L253.641 518.027L256.694 529.471C257.074 533.291 255.933 536.345 252.881 538.252L244.109 541.686V543.974H303.618V541.686L294.461 539.013C290.263 537.101 287.023 533.676 284.924 528.33L240.292 405.253ZM239.146 475.088H206.529L222.931 428.146L239.146 475.088ZM494.738 405.826H474.133L431.604 526.423C429.698 532.144 426.646 535.969 421.682 538.642L411.384 541.691V543.979H456.585V542.076L447.814 538.642C444.761 536.73 443.235 534.442 443.616 531.008L445.907 519.564L457.731 484.832H496.64L511.515 529.476C511.901 533.296 510.379 536.35 507.708 538.257C505.796 539.794 502.749 540.93 498.931 541.691V543.979H557.872V541.691L549.105 539.018C545.1 537.106 541.85 533.681 539.756 528.335L494.738 405.826ZM493.968 475.088H461.164L477.566 428.146L493.968 475.088Z" fill="black"/>
</g>
<defs>
<clipPath id="clip0_364_45">
<rect width="952" height="573" fill="white"/>
</clipPath>
</defs>
</svg>
