<svg width="533" height="533" viewBox="0 0 533 533" fill="none" xmlns="http://www.w3.org/2000/svg">
<path fill-rule="evenodd" clip-rule="evenodd" d="M182.661 170.561L346.604 7.25936C353.462 0.429174 364.657 0.449029 371.49 7.30155L526.162 162.455C533 169.308 532.975 180.503 526.117 187.334L362.179 350.638L182.661 170.561ZM329.561 141.585C346.778 124.437 374.636 124.487 391.788 141.691C408.94 158.896 408.892 186.748 391.681 203.893C374.465 221.038 346.607 220.988 329.455 203.784C312.303 186.582 312.35 158.73 329.561 141.585Z" fill="#585858"/>
<path fill-rule="evenodd" clip-rule="evenodd" d="M205.72 328.909C222.934 311.761 250.792 311.806 267.947 329.015C285.101 346.22 285.051 374.069 267.837 391.217C250.626 408.362 222.766 408.312 205.611 391.105C188.457 373.903 188.507 346.051 205.72 328.909ZM76.9105 329.306C94.1244 312.158 121.982 312.205 139.137 329.412C156.289 346.617 156.241 374.466 139.028 391.614C121.816 408.759 93.9556 408.709 76.8013 391.502C59.6494 374.3 59.6991 346.451 76.9105 329.306ZM6.87805 345.666L170.816 182.36L350.337 362.437L186.396 525.741C179.538 532.571 168.341 532.551 161.505 525.696L6.83336 370.545C0.000443179 363.69 0.0203061 352.497 6.87805 345.666Z" fill="#161616"/>
<path d="M243.386 531.642V509.663H235.014V505.826H256.116V509.663H247.691V531.642H243.386ZM259.003 531.642V505.826H265.342L271.865 526.443L278.169 505.826H284.391V531.642H280.453V509.978L273.799 531.642H269.906L262.964 509.663V531.642H259.003Z" fill="#161616"/>
</svg>
