<svg width="868" height="329" viewBox="0 0 868 329" fill="none" xmlns="http://www.w3.org/2000/svg">
<path fill-rule="evenodd" clip-rule="evenodd" d="M434.139 328.339C673.738 328.339 868 254.998 868 164.309C868 73.62 673.738 0 434.139 0C194.262 0 0 73.62 0 164.309C0 255.002 194.262 328.339 434.139 328.339Z" fill="#161616"/>
<path fill-rule="evenodd" clip-rule="evenodd" d="M434.139 311.544C204.056 311.544 17.0781 246.043 17.0781 164.309C17.0781 82.8572 204.056 16.5166 434.139 16.5166C664.784 16.5166 851.479 82.8572 851.479 164.309C851.479 246.043 664.784 311.544 434.139 311.544Z" fill="#F6F4EB"/>
<path fill-rule="evenodd" clip-rule="evenodd" d="M434.138 300.071C657.226 300.071 838.32 239.33 838.32 164.309C838.32 89.5752 657.226 28.8345 434.138 28.8345C210.773 28.8345 30.2305 89.5752 30.2305 164.309C30.2351 239.33 210.773 300.071 434.138 300.071Z" fill="#161616"/>
<path fill-rule="evenodd" clip-rule="evenodd" d="M539.952 191.459C558.984 173.546 569.613 154.793 597.051 155.071C613.563 155.35 617.757 168.507 620.555 174.107L656.664 113.088H678.776L618.88 219.176C617.757 221.412 614.955 225.611 615.238 228.97C615.809 234.286 622.522 232.89 620.003 232.89C632.038 232.329 654.145 209.377 659.467 203.782C660.58 202.376 662.547 199.861 663.661 199.861C664.783 199.861 667.024 200.979 667.024 202.659C667.024 203.782 664.505 207.976 662.547 210.495C651.347 224.492 632.877 246.043 611.884 246.604C601.528 246.604 597.603 242.406 596.207 234.291C591.451 238.485 575.213 245.765 558.701 245.765C544.982 245.486 539.382 237.367 536.589 230.932C534.069 225.615 532.947 217.779 534.905 209.943C527.347 213.863 520.35 214.42 510.273 214.142C498.512 213.859 491.233 208.542 487.6 194.823C474.164 219.459 473.598 220.294 459.888 246.048H436.096L466.606 194.266C470.531 187.265 472.489 181.67 473.881 175.796C474.725 172.432 472.206 169.352 468.564 169.078C464.648 169.078 458.218 172.998 452.052 178.872C452.052 178.872 436.379 195.667 424.901 212.74C413.98 228.979 395.232 247.449 374.799 247.449C359.962 247.449 346.526 239.334 343.728 223.657C343.728 223.657 342.327 227.295 329.169 234.852C328.051 235.409 325.254 237.089 324.418 236.532C321.895 234.296 320.498 231.493 320.215 229.531C321.055 229.814 322.734 228.413 328.051 224.214C338.407 216.378 340.647 210.212 340.647 210.212C343.162 204.895 347.649 196.497 350.725 190.619C359.127 173.824 373.676 156.751 397.468 155.911C401.388 155.911 402.506 157.59 403.346 158.992C405.582 160.671 404.747 164.03 404.747 164.03C387.952 166.549 376.479 176.343 369.477 185.864C365.283 192.02 360.802 202.097 359.962 209.372C358.282 221.968 364.161 230.361 372.837 232.324C389.07 234.843 402.506 223.087 413.145 204.895C415.947 200.135 417.905 187.817 417.905 181.099C417.905 174.381 414.263 167.384 411.465 164.582C411.465 159.827 414.541 156.746 418.179 156.746C419.297 156.746 420.42 156.746 421.538 157.864C427.138 163.464 430.218 174.102 430.218 182.217C430.218 185.019 430.218 187.817 429.657 190.619C441.413 176.343 456.246 157.869 467.729 154.231C469.965 153.113 472.206 153.113 474.442 153.113C495.436 152.552 492.638 171.588 492.638 171.588C503.829 158.713 511.67 153.953 522.025 154.51C533.225 155.071 537.141 162.912 537.141 169.069C536.858 176.343 531.55 184.741 522.317 185.019C514.189 185.019 509.434 181.099 506.914 173.824C501.597 175.787 499.083 179.424 497.96 186.699C496.276 195.936 503.277 203.216 512.231 203.216C527.63 203.22 534.352 196.497 539.952 191.459ZM556.743 70.8219C556.743 79.7809 525.389 96.8543 498.795 96.8543C457.373 96.8543 414.268 76.9786 394.401 72.5014C372.846 67.4629 353.253 63.2642 337.854 63.2642C283.832 63.2642 259.757 86.4989 260.88 107.771C261.441 116.447 268.433 122.047 278.793 120.084C289.993 118.127 305.665 107.488 309.586 98.2508C310.426 96.293 312.666 96.0099 313.506 96.5713C315.186 97.9725 314.624 99.9303 314.624 99.9303C313.223 110.847 296.428 141.078 267.32 141.078C251.086 141.078 240.169 125.963 240.448 111.126C240.726 83.4136 268.999 55.4233 338.694 55.4233C351.847 55.4233 366.685 56.5415 382.923 59.3437C401.671 62.7028 448.414 70.5389 486.482 71.1003C500.484 71.1003 518.397 71.6617 532.951 69.4208C548.345 66.9016 544.986 66.3402 551.147 66.3402C556.743 66.3402 556.743 68.581 556.743 70.8219Z" fill="#F6F4EB"/>
<path fill-rule="evenodd" clip-rule="evenodd" d="M598.174 168.23C588.371 167.111 576.053 175.509 565.98 187.827C560.942 193.984 555.625 205.74 554.781 212.737C553.667 219.738 555.625 226.734 558.144 228.692C560.664 230.65 571.863 236.528 589.215 218.898C599.009 209.099 608.525 193.144 608.525 193.144L605.444 192.299C611.323 181.387 610.195 169.626 598.174 168.23Z" fill="#161616"/>
<path fill-rule="evenodd" clip-rule="evenodd" d="M393.556 135.2C393.556 138.281 397.75 140.8 401.392 141.083C400.553 144.159 400.831 145.56 399.434 145.282C391.037 145.282 387.678 137.163 387.678 137.163C376.487 139.121 365.571 140.522 343.454 142.763C287.752 232.895 270.4 247.732 236.248 247.732C211.895 247.732 190.345 231.777 189.784 203.225C189.5 185.873 203.498 164.596 229.53 158.157C232.611 158.157 233.729 159.279 233.729 160.959C233.729 162.082 232.611 163.478 230.087 164.596C222.529 167.399 209.376 182.231 209.376 195.95C209.376 206.306 215.816 217.784 226.728 220.299C229.809 221.143 232.611 220.86 235.409 220.86C262.559 220.86 293.069 190.35 326.097 143.886C320.781 144.164 298.107 146.688 292.507 153.123C289.993 155.081 288.313 153.963 287.752 151.722C287.752 151.16 288.592 149.202 289.436 148.08C298.39 138.003 325.262 135.766 331.697 134.927C356.89 96.2979 389.357 72.2234 396.075 72.5064C397.194 72.5064 399.718 74.1859 398.595 76.9835C398.312 77.5449 395.514 80.6209 394.401 81.4607C388.801 86.4992 369.765 98.8172 349.054 133.804C365.849 132.964 385.442 129.605 385.442 129.605C385.442 129.605 384.324 125.968 384.324 122.887C385.163 110.852 392.16 103.573 401.119 104.974C406.162 105.814 409.516 110.012 409.516 114.489C409.516 119.25 405.879 126.246 402.237 129.605C399.713 131.558 396.911 133.521 393.556 135.2Z" fill="#F6F4EB"/>
<path fill-rule="evenodd" clip-rule="evenodd" d="M392.151 129.039C392.151 129.039 394.954 129.322 399.148 124.562C400.827 122.882 403.63 117.844 403.068 114.485C402.785 112.805 401.95 110.847 399.992 111.126C395.789 111.97 393.27 113.928 392.151 118.127C390.755 122.604 391.316 125.685 392.151 129.039Z" fill="#161616"/>
</svg>
