<svg width="960" height="652" viewBox="0 0 960 652" fill="none" xmlns="http://www.w3.org/2000/svg">
<path fill-rule="evenodd" clip-rule="evenodd" d="M704.622 49.9318C638.382 18.1308 562.862 0.248535 484.033 0.248535C405.203 0.248535 329.689 18.1308 263.448 50.5915C240.256 106.239 227.673 167.846 227.673 231.442C227.673 295.698 240.261 356.64 263.448 412.947C329.689 444.743 405.203 463.29 484.033 463.29C562.862 463.29 638.382 444.743 704.622 412.947C727.815 357.311 741.063 295.704 741.063 231.442C741.058 167.846 727.815 106.239 704.622 49.9318Z" fill="#161616"/>
<path fill-rule="evenodd" clip-rule="evenodd" d="M688.724 63.8455C627.123 35.3647 556.897 18.8018 484.032 18.8018C411.168 18.8018 340.947 35.3647 279.34 63.8455C258.809 116.184 247.545 172.486 247.545 231.443C247.545 290.4 258.803 347.367 279.34 399.04C340.947 428.186 411.168 444.084 484.032 444.084C556.897 444.084 627.783 428.186 688.724 399.04C709.916 347.367 721.18 291.065 721.18 231.443C721.18 172.486 709.262 116.178 688.724 63.8455Z" fill="#F6F4EB"/>
<path fill-rule="evenodd" clip-rule="evenodd" d="M412.487 177.779C401.888 199.641 394.604 223.488 391.29 250.649C390.625 250.649 385.325 251.314 385.325 251.314C362.138 253.304 338.957 255.289 316.429 263.897L317.754 272.511C354.855 318.22 411.156 346.041 411.156 346.041L400.558 325.504C397.908 323.519 389.959 321.529 389.959 321.529C364.788 313.58 346.9 280.46 344.251 275.161C364.788 275.161 383.335 281.12 400.558 287.084C412.481 290.399 423.745 294.368 435.003 295.698C454.875 299.007 475.413 295.698 494.62 293.043C509.858 291.059 524.436 291.059 539.015 292.378C540.994 294.368 556.232 312.915 571.47 320.864C590.017 330.138 643.675 346.695 646.325 347.36C647.644 348.026 668.187 369.217 681.429 393.069C620.477 420.896 552.257 435.458 484.021 435.458C415.791 435.458 347.56 420.89 286.618 393.069C266.746 341.401 256.148 287.079 256.148 231.436C256.148 176.454 266.746 122.131 286.618 70.4688C347.56 42.6422 415.791 28.0747 484.021 28.0747C552.917 28.0747 621.148 42.6477 681.429 70.4688C701.302 122.137 711.895 176.454 711.895 231.436C711.944 281.749 703.432 331.704 686.723 379.161C667.516 346.036 659.573 336.102 659.573 336.102C658.913 336.102 632.411 322.189 625.787 316.225C620.483 311.585 617.844 302.317 614.524 291.713C610.549 276.48 605.261 257.927 590.682 242.695L607.24 236.065C602.606 204.935 565.511 185.063 564.851 185.063L564.181 185.728C578.759 203.61 581.409 218.183 581.409 227.462C581.409 232.096 580.749 235.405 580.089 236.73C576.109 234.746 548.953 226.132 486.022 228.781C477.408 228.781 464.16 228.122 456.211 220.832C451.571 216.858 449.587 210.234 449.587 202.945C449.587 181.088 458.861 151.937 460.185 147.968L476.089 149.952C495.961 139.354 503.245 129.415 503.904 128.095C487.347 130.085 465.49 134.054 465.49 134.054C466.815 130.74 470.789 118.157 470.789 104.243C470.789 89.0053 466.155 72.4478 446.943 62.509L445.613 63.1741C446.278 63.8338 456.871 75.7571 456.871 91.6549C456.871 96.2945 456.211 101.594 454.221 106.228C447.597 104.243 443.623 103.584 436.333 103.584C432.364 90.3301 421.106 79.7316 405.868 74.4323L405.203 75.092C405.203 75.092 421.766 87.0208 422.426 103.584C414.477 104.243 409.843 105.568 399.904 108.218C395.264 101.594 385.99 96.2945 373.402 94.9697V96.2999C373.402 96.2999 387.975 100.934 390.625 112.198C382.021 116.172 371.417 122.131 365.453 127.436L366.118 128.101C403.213 114.188 437.658 110.878 446.272 121.477C448.257 123.461 448.922 125.451 448.922 128.101C448.922 130.745 447.592 134.725 444.947 138.699C427.065 142.674 399.244 149.958 376.722 158.572L380.031 167.845C380.031 167.845 402.553 172.485 411.167 174.475C411.167 174.475 414.477 175.135 412.487 177.779ZM0.75293 627.779C0.75293 627.779 12.7362 632.136 26.1697 632.136C40.6936 632.136 49.4058 629.966 54.487 624.874C58.4832 620.883 60.2987 613.981 59.9389 603.459V535.195H81.3594V606.73C80.9996 638.313 65.7506 651.752 30.166 651.752C12.7362 651.752 0.75293 648.846 0.75293 648.846V627.779ZM143.806 555.896C177.935 555.896 197.905 574.051 197.905 604.549C197.905 626.335 183.746 651.752 143.806 651.752C103.505 651.752 89.3465 626.335 89.3465 604.549C89.341 574.051 109.671 555.896 143.806 555.896ZM176.844 603.464C176.844 584.949 164.866 574.416 143.806 574.416C122.745 574.416 110.407 584.949 110.407 603.464C110.407 629.235 131.463 632.877 143.806 632.877C156.149 632.877 176.844 629.23 176.844 603.464ZM283.222 558.077V594.381H228.397V558.077H207.342V649.571H228.397V612.896H283.222V649.571H304.648V558.077H283.222ZM602.006 630.691V612.896H650.653V594.381H602.006V576.586H664.817V558.077H580.58V649.571H664.817V630.691H602.006ZM697.136 630.691V612.896H745.789V594.381H697.136V576.586H760.302V558.077H676.07V649.571H760.302V630.691H697.136ZM896.824 630.691V612.896H945.476V594.381H896.824V576.586H960V558.077H875.757V649.571H960V630.691H896.824ZM508.331 554.086C535.923 554.086 551.903 567.874 551.903 591.835C551.903 625.61 524.676 630.691 508.331 630.691H478.193V554.086H508.331ZM508.331 535.195H457.138V649.571H508.331C556.259 649.571 572.958 619.073 572.958 593.296C572.953 556.981 548.632 535.195 508.331 535.195ZM842.354 614.717C858.698 610.726 864.499 598.372 864.499 587.479C864.499 568.964 852.521 558.077 831.831 558.077H771.926V649.565H792.976V616.161H818.033L843.449 649.565H869.231L842.354 614.717ZM792.981 597.287V576.586H831.837C839.088 576.586 843.455 580.588 843.455 586.754C843.455 595.837 836.193 597.287 831.837 597.287H792.981ZM393.601 649.571L338.406 587.119V649.571H317.356V558.077H338.406L393.601 619.798V558.077H414.657V649.571H393.601Z" fill="#161616"/>
</svg>
