<svg width="952" height="172" viewBox="0 0 952 172" fill="none" xmlns="http://www.w3.org/2000/svg">
<path fill-rule="evenodd" clip-rule="evenodd" d="M296.177 0H952L901.759 171.887H245.936L296.177 0ZM249.901 0H275.024L226.099 171.887H199.654L249.901 0ZM206.268 0H230.07L179.823 171.887H157.343L206.268 0ZM165.279 0H186.437L137.512 171.887H115.032L165.279 0ZM125.611 0H144.121L95.2011 171.887H75.3646L125.611 0ZM87.2708 0H105.78L55.5335 171.887H38.3459L87.2708 0ZM50.2467 0H67.4343L18.5094 171.887H0L50.2467 0Z" fill="#161616"/>
<path fill-rule="evenodd" clip-rule="evenodd" d="M505.089 37.0243L530.217 13.2227H587.073L598.963 30.4103L593.676 50.2468H565.914L569.879 35.6971H535.504L526.247 67.4344H565.914L581.78 88.5818L567.236 142.804L550.043 158.665H490.539L479.96 144.126L486.585 117.676H511.703L506.41 136.19H542.107L551.365 100.483H513.024L494.509 75.3647L505.089 37.0243ZM628.056 13.2227H680.946L695.491 33.0537L687.56 58.177H659.788L666.397 35.6971H635.992L606.898 136.19H638.636L649.215 95.1958H676.976L665.075 137.512L639.957 158.665H588.394L576.493 141.483L608.22 30.4103L628.056 13.2227ZM805.236 13.2227H880.595L895.145 27.7669L881.917 72.7213L863.413 87.2655L872.67 105.775L858.126 158.665H829.032L846.225 100.483H810.528L793.335 158.665H737.802L739.123 129.582H710.03L696.818 158.665H663.753L729.866 13.2227H774.82L769.528 142.804L805.236 13.2227ZM477.322 158.665L483.93 13.2227H445.59L382.121 132.225L416.501 13.2227H387.413L366.255 87.2655L358.325 13.2227H323.944L281.633 158.665H312.043L331.88 87.2655L339.81 158.665H404.601L419.145 129.582H448.233L446.912 158.665H477.322ZM873.987 148.086C873.543 141.228 879.36 135.941 885.887 136.196C893.049 135.941 898.866 141.234 899.11 148.086C898.866 155.648 893.049 160.94 885.887 161.308C879.36 160.94 873.543 155.648 873.987 148.086Z" fill="#F6F4EB"/>
<path fill-rule="evenodd" clip-rule="evenodd" d="M885.888 158.665C891.895 158.855 896.353 154.424 896.467 148.086C896.353 142.49 891.895 138.027 885.888 137.518C880.525 138.027 876.051 142.49 876.641 148.086C876.045 154.424 880.525 158.855 885.888 158.665Z" fill="#161616"/>
<path fill-rule="evenodd" clip-rule="evenodd" d="M883.244 156.016H881.922V141.477H887.214C890.302 141.223 891.997 142.485 892.506 145.442C891.997 147.907 890.378 149.028 888.541 149.408L892.506 156.011H889.863L885.898 149.408H883.254V156.016H883.244Z" fill="#F6F4EB"/>
<path fill-rule="evenodd" clip-rule="evenodd" d="M885.887 148.086C888.054 147.544 889.706 147.409 889.853 145.453C889.706 143.411 888.087 143.081 887.209 142.81H883.244V148.091L885.887 148.086ZM829.032 35.6973H864.74L855.483 67.4346H819.786L829.032 35.6973ZM435.011 100.483H449.555L450.882 70.078L435.011 100.483ZM740.445 100.483H724.579L743.094 59.4989L740.445 100.483Z" fill="#161616"/>
</svg>
