<svg width="835" height="389" viewBox="0 0 835 389" fill="none" xmlns="http://www.w3.org/2000/svg">
<path fill-rule="evenodd" clip-rule="evenodd" d="M672.684 293.696C660.494 285.165 644.659 280.283 625.148 280.283C606.872 280.283 591.033 285.165 577.638 293.696C564.226 304.649 556.913 318.071 556.913 335.124C556.913 352.186 564.226 364.371 577.638 375.334C591.033 383.865 606.877 388.746 625.148 388.746C644.659 388.746 660.494 383.865 672.684 375.334C687.306 364.371 693.4 352.186 693.4 335.124C693.396 318.071 687.306 304.649 672.684 293.696ZM625.143 310.749C633.683 310.749 639.774 313.189 645.869 316.839C650.75 321.72 654.4 326.584 654.4 332.683C655.609 349.745 645.868 358.276 625.143 358.276C616.612 358.276 609.308 355.836 603.218 350.954C598.337 346.082 595.905 339.992 595.905 332.679C597.114 326.579 599.564 321.716 604.427 316.835C610.522 313.189 616.612 310.749 625.143 310.749ZM829.875 283.933H786.006L743.36 324.161V251.045H703.141V386.306H743.36V331.465L783.565 386.306H834.756L782.356 327.811L829.875 283.933ZM341.214 282.724C320.494 282.724 304.659 287.605 292.469 296.118C280.284 305.881 274.189 318.071 272.971 335.124C272.971 368.021 296.123 385.092 343.655 386.306H403.368V358.281H346.087C330.247 357.054 319.28 353.399 315.621 346.091C310.749 338.778 310.749 331.47 314.403 324.166C319.28 315.635 329.025 310.753 341.214 310.753H365.585L338.774 346.091H376.552L403.363 311.976V282.728L341.214 282.724ZM456.981 251.045H415.549V385.092H491.096C508.167 385.092 521.562 380.211 531.315 370.462C542.287 361.93 547.159 349.745 548.377 335.124C548.377 305.876 536.197 290.028 511.822 285.165L477.706 283.938L459.422 310.753H475.266C499.641 310.753 510.604 318.075 510.604 335.128C509.385 349.75 498.423 358.281 477.706 358.281H456.981V251.045ZM0 251.045V385.092H41.4326V281.501H80.429C88.9556 283.933 95.0505 288.814 93.8369 298.555C93.8369 304.645 91.3962 309.526 86.5239 310.744L47.5275 314.394L90.1782 386.297H140.142L98.7092 330.247C124.302 329.02 136.488 315.626 134.047 291.251C134.047 277.838 127.952 268.089 116.989 260.785C107.236 254.695 95.0505 251.041 80.429 251.041L0 251.045Z" fill="#161616"/>
<path fill-rule="evenodd" clip-rule="evenodd" d="M204.726 282.724C184.01 282.724 168.171 287.605 155.981 296.119C143.795 304.65 137.701 318.071 137.701 333.906C136.487 368.021 159.639 385.097 205.944 385.097H266.875V358.281H209.608C193.759 357.054 182.796 353.4 179.142 346.091C174.265 338.778 174.265 331.47 177.924 324.166C182.796 315.635 192.541 310.753 204.731 310.753H229.101L202.295 346.091H240.073L266.88 310.753V282.729L204.726 282.724ZM421.643 36.5603L485.005 75.5567L586.146 37.7828C620.279 26.8156 664.148 14.6259 716.543 0C587.378 10.9717 489.887 21.9344 421.643 36.5603ZM372.902 77.9973L316.843 63.3714C285.16 71.9069 254.694 85.3058 226.67 102.372C198.636 119.426 176.706 138.933 162.08 159.649H257.135C264.448 148.677 276.633 136.488 292.473 124.302C315.621 104.809 342.436 90.1826 372.902 77.9973ZM439.927 101.145L392.4 85.3014C381.428 90.1826 368.029 96.273 352.181 107.236C330.247 121.862 310.748 140.142 293.691 159.649H382.646C394.832 140.142 414.33 120.648 439.927 101.145ZM331.469 0H141.364L331.465 51.1862C415.548 76.7704 493.536 106.027 565.448 136.488L331.469 0Z" fill="#161616"/>
</svg>
