<svg width="740" height="291" viewBox="0 0 740 291" fill="none" xmlns="http://www.w3.org/2000/svg">
<g clip-path="url(#clip0_364_95)">
<path fill-rule="evenodd" clip-rule="evenodd" d="M154.043 25.6543H38.5148C17.3206 25.6543 0 39.7964 0 57.0882H192.558C192.558 39.7964 175.222 25.6543 154.043 25.6543Z" fill="#161616"/>
<path fill-rule="evenodd" clip-rule="evenodd" d="M154.043 88.5376H0C0 105.861 17.3206 120.035 38.5148 120.035H192.558C192.558 102.68 175.222 88.5376 154.043 88.5376Z" fill="#161616"/>
<path fill-rule="evenodd" clip-rule="evenodd" d="M38.5148 182.855H154.043C175.222 182.855 192.542 168.682 192.542 151.358H0C0 168.697 17.3206 182.855 38.5148 182.855Z" fill="#161616"/>
<path fill-rule="evenodd" clip-rule="evenodd" d="M411.601 25.5127H300.75C278.469 25.5127 260.408 40.2533 260.408 58.4427V181.832H299.017V57.0254H413.318V89.7664H345.925C338.203 89.7664 330.798 92.8343 325.338 98.2951C319.878 103.756 316.81 111.162 316.81 118.885H413.318V181.879H451.911V58.4427C451.911 40.269 433.882 25.5127 411.601 25.5127Z" fill="#161616"/>
<path fill-rule="evenodd" clip-rule="evenodd" d="M521.492 53.9069V181.847H560.117V57.0409H674.418V181.847H713.043V53.9069C713.043 38.2372 697.485 25.5597 678.275 25.5597H556.259C537.065 25.5125 521.492 38.2215 521.492 53.9069Z" fill="#161616"/>
<path d="M726.805 25.1975C725.026 25.2098 723.262 24.8783 721.609 24.2211C720.049 23.6074 718.626 22.6923 717.42 21.5281C716.242 20.3778 715.291 19.0154 714.617 17.5123C713.936 15.9643 713.587 14.2903 713.594 12.5988C713.583 10.9018 713.932 9.22186 714.617 7.66949C715.282 6.16602 716.234 4.80711 717.42 3.66938C718.633 2.51812 720.055 1.60939 721.609 0.992144C723.269 0.32209 725.046 -0.0150145 726.836 -8.45935e-06C728.612 -0.0149915 730.373 0.322227 732.017 0.992144C733.565 1.61792 734.981 2.53173 736.19 3.68513C737.375 4.82024 738.322 6.18005 738.977 7.68524C739.68 9.22848 740.05 10.9027 740.063 12.5988C740.074 14.2957 739.725 15.9757 739.04 17.528C738.372 19.0304 737.426 20.393 736.252 21.5439C735.047 22.708 733.624 23.6231 732.064 24.2369C730.39 24.8967 728.604 25.223 726.805 25.1975ZM726.805 22.7723C728.223 22.7902 729.63 22.5279 730.946 22.0006C732.17 21.5121 733.283 20.7841 734.222 19.8591C735.16 18.9342 735.904 17.8311 736.41 16.6146C736.935 15.3415 737.197 13.9757 737.182 12.5988C737.186 11.228 736.924 9.86946 736.41 8.59865C735.91 7.38716 735.171 6.28907 734.237 5.37022C733.29 4.44113 732.172 3.70326 730.946 3.19693C729.643 2.66141 728.245 2.39362 726.836 2.40951C725.418 2.39701 724.01 2.6646 722.695 3.19693C721.466 3.70697 720.344 4.44429 719.389 5.37022C718.453 6.29118 717.709 7.38846 717.2 8.59865C716.15 11.162 716.15 14.0355 717.2 16.5989C717.709 17.7822 718.447 18.8528 719.373 19.7486C720.327 20.7377 721.474 21.5203 722.742 22.0478C724.035 22.5597 725.415 22.8164 726.805 22.8038V22.7723ZM732.82 16.4729C732.18 17.3452 731.351 18.0613 730.395 18.5674C729.351 19.1304 728.18 19.4177 726.994 19.4021C725.993 19.4166 724.999 19.2402 724.065 18.8824C723.215 18.5567 722.439 18.0641 721.782 17.4335C721.145 16.8152 720.646 16.0692 720.318 15.2445C719.979 14.4032 719.803 13.5055 719.798 12.5988C719.788 11.6737 719.971 10.7568 720.333 9.90577C720.673 9.08385 721.183 8.34318 721.829 7.73248C722.49 7.11085 723.265 6.62406 724.112 6.29937C725.026 5.94612 725.999 5.76976 726.978 5.77968C728.175 5.75871 729.357 6.04615 730.411 6.61434C731.351 7.13039 732.168 7.84514 732.804 8.70889L730.757 10.1105C730.329 9.56184 729.793 9.10635 729.183 8.77188C728.541 8.38544 727.806 8.18379 727.057 8.18919C726.436 8.17945 725.82 8.29738 725.246 8.53566C724.722 8.75694 724.246 9.07785 723.845 9.48056C723.45 9.88241 723.14 10.3589 722.931 10.8822C722.727 11.4308 722.631 12.0137 722.648 12.5988C722.647 13.1716 722.759 13.739 722.979 14.2681C723.187 14.7865 723.498 15.2578 723.892 15.654C724.296 16.0582 724.771 16.3839 725.293 16.6146C725.866 16.8583 726.482 16.9816 727.104 16.9768C727.875 16.9867 728.634 16.7793 729.293 16.3784C729.886 16.0309 730.397 15.5579 730.789 14.9925L732.82 16.4729Z" fill="#161616"/>
<path d="M159.224 225.108L130.487 289.677H146.674L152.61 274.59H180.796L186.921 289.677H203.832L174.86 225.108H159.224ZM175.741 262.086H157.633L166.53 239.849L175.741 262.086Z" fill="#5E5E5E"/>
<path d="M225.971 233.313C220.759 238.747 218.098 247.219 218.098 258.511C217.98 263.672 218.868 268.807 220.712 273.629C222.347 277.73 225.069 281.307 228.585 283.976C231.146 285.948 234.05 287.427 237.151 288.338C241.399 289.347 245.761 289.792 250.126 289.661H280.878V250.889H246.551V263.283H265.336V277.015H250.141C244.819 277.015 240.914 275.44 238.537 272.574C236.159 269.708 234.899 264.7 234.899 257.897C234.899 250.652 236.127 245.298 238.568 242.038C241.009 238.778 244.867 237.187 250.141 237.187H280.893V225.108H250.141C239.34 225.108 231.199 227.864 225.971 233.313Z" fill="#5E5E5E"/>
<path d="M424.812 223.864C413.491 223.864 404.925 226.605 399.351 232.006C393.777 237.408 390.942 245.676 390.942 256.7C390.942 268.385 393.714 277.173 399.178 282.638C404.641 288.102 413.27 290.953 424.796 290.953C436.322 290.953 444.794 288.165 450.305 282.685C455.816 277.204 458.619 268.669 458.619 257.361C458.619 246.054 455.816 237.534 450.305 232.069C444.794 226.605 436.165 223.864 424.812 223.864ZM437.913 273.661C435.094 277.11 430.685 278.858 424.796 278.858C418.907 278.858 414.404 277.094 411.648 273.629C408.893 270.165 407.444 264.464 407.444 256.826C407.444 249.786 408.893 244.479 411.774 241.077C414.656 237.676 419.002 235.943 424.796 235.943C430.591 235.943 435.094 237.676 437.913 241.109C440.731 244.542 442.196 250.07 442.196 257.408C442.196 264.747 440.763 270.18 437.913 273.661Z" fill="#5E5E5E"/>
<path d="M564.275 225.108L550.277 272.354L535.806 225.108H518.359L505.747 272.307L490.804 225.108H474.522L497.118 289.646H515.1L527.098 243.912L540.75 289.236L540.876 289.646H558.937L579.911 225.108H564.275Z" fill="#5E5E5E"/>
<path d="M355.593 262.999C359.347 262.178 362.693 260.059 365.04 257.015C367.546 253.434 368.808 249.13 368.63 244.763C368.63 238.054 366.662 233.046 362.789 229.865C358.915 226.683 352.869 225.14 344.728 225.14H309.614V289.709H324.809V237.597H341.421C346.019 237.597 349.2 238.164 350.869 239.282C351.636 240.017 352.246 240.9 352.663 241.877C353.08 242.854 353.295 243.905 353.295 244.967C353.295 246.03 353.08 247.081 352.663 248.058C352.246 249.035 351.636 249.918 350.869 250.653C349.168 251.787 346.003 252.369 341.421 252.369H333.926V264.763H340.398L355.089 289.677H372.283L355.593 262.999Z" fill="#5E5E5E"/>
</g>
<defs>
<clipPath id="clip0_364_95">
<rect width="740" height="291" fill="white"/>
</clipPath>
</defs>
</svg>
