<svg width="686" height="513" viewBox="0 0 686 513" fill="none" xmlns="http://www.w3.org/2000/svg">
<path d="M73.0563 337.228C73.0563 330.145 67.9957 325.839 51.0393 319.002C32.8354 311.672 20.184 303.569 20.184 286.872C20.184 264.356 40.4262 249.17 66.221 249.17C84.6886 249.17 95.3193 254.988 103.402 261.07C106.196 263.091 108.217 265.622 108.217 269.911C108.217 275.746 103.648 280.035 98.0956 280.035C95.8485 280.096 93.6665 279.276 92.0158 277.75C83.933 271.176 76.0786 267.643 64.9559 267.643C51.0393 267.643 42.6929 275.236 42.6929 283.321C42.6929 290.914 48.7726 294.711 65.975 301.548C84.179 308.631 95.8113 316.98 95.8113 333.678C95.8113 356.967 74.5674 371.889 49.2646 371.889C33.8369 371.889 16.8981 367.846 4.75627 356.457C3.49263 355.405 2.47559 354.089 1.77719 352.601C1.07878 351.112 0.716105 349.489 0.714844 347.844C0.714844 341.781 5.00227 337.228 11.082 337.228C13.8583 337.228 16.6345 338.494 18.1632 340.005C28.0208 349.127 36.8768 353.416 50.5298 353.416C63.1812 353.943 73.0563 347.089 73.0563 337.228ZM200.291 280.035C206.88 280.035 210.412 284.851 208.145 292.953L189.678 361.519C187.903 367.846 183.598 371.379 178.537 371.379C171.966 371.379 168.17 366.581 170.455 358.478L181.577 316.998L159.314 341.025C156.028 344.821 152.479 346.843 148.438 346.843C143.869 346.843 141.866 344.558 139.828 339.759L131.235 316.98L119.339 361.519C117.582 367.846 113.541 371.379 108.217 371.379C101.645 371.379 98.0956 366.581 100.134 358.478L118.584 289.913C120.359 283.585 123.89 279.789 129.97 279.789H131.235C136.296 279.789 139.318 282.829 141.356 287.874L155.009 323.817L186.884 285.852C190.433 281.81 193.719 279.789 198.516 279.789H200.291V280.035ZM209.656 332.412C209.656 305.591 231.41 279.033 263.776 279.033C288.587 279.033 305.034 296.24 305.034 319.002C305.034 345.823 283.017 372.399 250.896 372.399C225.84 372.153 209.656 354.945 209.656 332.412ZM284.282 320.285C284.282 306.856 276.199 297.259 261.264 297.259C242.286 297.259 229.899 315.469 229.899 330.901C229.899 344.312 237.981 353.926 252.917 353.926C271.894 353.926 284.282 335.734 284.282 320.285ZM312.607 332.412C312.607 305.591 334.378 279.033 366.745 279.033C391.538 279.033 407.985 296.24 407.985 319.002C407.985 345.823 386.231 372.399 353.865 372.399C329.054 372.153 312.607 354.945 312.607 332.412ZM387.497 320.285C387.497 306.856 379.414 297.259 364.478 297.259C345.501 297.259 333.113 315.469 333.113 330.901C333.113 344.312 341.196 353.926 356.132 353.926C375.109 353.926 387.497 335.734 387.497 320.285ZM438.594 361.519C436.837 367.846 432.778 371.379 427.471 371.379C420.882 371.379 417.35 366.581 419.371 358.478L435.554 298.771H419.108C417.909 298.776 416.722 298.543 415.615 298.086C414.507 297.629 413.501 296.957 412.655 296.109C411.808 295.26 411.139 294.253 410.684 293.144C410.229 292.035 409.999 290.847 410.006 289.649C410.006 284.587 414.047 280.544 419.108 280.544H476.794C481.855 280.544 485.896 284.587 485.896 289.649C485.896 294.711 481.855 298.771 476.794 298.771H455.533L438.594 361.519ZM553.458 361.519C551.666 367.846 547.625 371.379 542.318 371.379C535.729 371.379 532.197 366.581 534.218 358.478L540.789 334.451H504.874L497.529 361.519C495.772 367.846 491.73 371.379 486.406 371.379C479.834 371.379 476.285 366.581 478.323 358.478L496.773 289.649C498.548 283.321 502.589 279.789 507.913 279.789C514.485 279.789 518.034 284.587 515.996 292.69L509.67 316.224H545.604L552.685 289.649C554.442 283.321 558.501 279.789 563.808 279.789C570.397 279.789 573.929 284.587 571.908 292.69L553.458 361.519ZM586.58 361.519C584.823 367.846 580.764 371.379 575.458 371.379C568.869 371.379 565.337 366.581 567.357 358.478L585.825 289.649C587.582 283.321 591.641 279.789 596.948 279.789C603.537 279.789 607.069 284.587 605.048 292.69L586.58 361.519ZM607.824 370.623C601.253 370.623 597.721 365.825 599.741 357.722L617.699 290.405C619.457 284.077 623.516 280.562 628.822 280.562H677.144C679.481 280.589 681.715 281.529 683.369 283.18C685.024 284.832 685.968 287.065 686 289.403C685.972 291.744 685.03 293.981 683.375 295.636C681.72 297.292 679.484 298.234 677.144 298.261H635.411L630.597 316.717H661.962C663.129 316.707 664.286 316.93 665.366 317.373C666.446 317.816 667.427 318.47 668.251 319.296C669.076 320.123 669.727 321.105 670.168 322.186C670.609 323.267 670.83 324.425 670.818 325.593C670.818 330.391 666.776 334.205 661.962 334.205H626.046L620.985 353.17H658.94C663.737 353.17 667.778 357.213 667.778 362.029C667.778 366.845 663.737 370.887 658.94 370.887H607.824V370.623Z" fill="#161616"/>
<path d="M220.024 116.328C232.675 111.512 258.734 158.828 281.998 155.295C319.706 149.477 319.197 70.2602 345.255 67.9929C371.296 65.9716 381.171 175.033 405.964 180.341C430.758 185.649 473.755 109.491 488.937 115.555C502.344 120.88 482.611 207.919 497.019 210.467C511.428 213.016 527.137 185.649 529.667 200.08C532.197 214.492 525.626 241.824 512.711 245.884C499.567 249.926 492.978 231.471 461.877 226.392C430.494 221.083 419.108 260.314 396.335 257.273C363.969 252.967 348.541 177.564 328.808 182.363C308.812 187.179 329.054 243.353 303.26 248.661C281.243 252.457 258.98 196.037 243.306 202.857C229.899 208.675 239.511 241.578 227.615 233.475C215.982 224.862 200.028 125.169 220.024 116.328ZM198.516 74.8301C197.251 64.9521 203.085 56.3573 211.695 55.8476C220.305 55.3378 228.634 62.9309 229.899 72.7912C231.164 82.6692 227.105 102.407 218.513 102.917C209.657 103.409 199.782 84.6905 198.516 74.8301ZM330.32 15.6151C331.075 6.49297 339.931 0.165464 350.052 1.94068C360.173 3.7159 367.764 12.3108 367.009 21.679C366.253 30.7836 355.622 52.0511 345.501 50.5219C335.38 48.7643 329.318 24.9658 330.32 15.6151ZM486.652 68.5026C490.202 59.1343 498.548 55.8476 507.158 58.3786C515.768 60.9096 520.302 69.7681 517.525 78.1169C514.731 86.4657 501.588 104.938 491.976 101.652C483.63 98.8571 483.894 76.8514 486.652 68.5026ZM184.863 501.955C183.106 508.546 178.538 512.325 172.968 512.325C166.15 512.325 161.845 507.28 164.375 498.668L190.943 399.713C192.964 393.157 197.269 389.343 202.821 389.343C209.657 389.343 213.716 394.422 211.431 403.017L198.516 451.352L268.591 393.403C271.121 391.118 273.915 389.36 277.447 389.36C283.527 389.36 287.059 393.403 287.059 398.974C287.047 400.516 286.701 402.037 286.046 403.433C285.391 404.828 284.442 406.066 283.263 407.06L238.245 443.759L263.285 496.137C264.55 498.668 265.042 500.953 265.042 503.22C265.042 509.038 259.753 512.834 254.429 512.834C248.63 512.834 245.327 509.548 243.552 505.505L220.779 455.904L190.943 479.685L184.863 501.955ZM383.701 430.858C385.459 424.53 389.518 420.98 394.578 420.98C401.15 420.98 404.699 425.796 402.415 433.881L383.701 502.956C382.19 508.792 378.887 512.325 373.071 512.325H372.561C366.235 512.325 363.705 509.811 361.175 504.995L337.155 453.127L323.748 502.974C321.973 509.302 317.932 512.834 312.854 512.834C306.282 512.834 302.75 508.036 305.017 499.933L323.484 431.614C325.259 425.286 329.3 421.736 335.134 421.736H336.153C341.952 421.736 345.501 424.777 347.786 429.592L370.54 479.439L383.701 430.858ZM481.346 496.383C480.825 498.592 479.833 500.662 478.438 502.452C477.043 504.242 475.278 505.709 473.263 506.753C468.448 509.302 458.081 512.325 446.431 512.325C425.943 512.325 404.19 500.197 404.19 473.112C404.19 445.025 427.964 418.976 460.348 418.976C475.53 418.976 486.406 424.021 491.713 429.083C493.734 430.84 495.754 433.125 495.754 437.168C495.754 439.782 494.719 442.289 492.874 444.14C491.03 445.992 488.527 447.037 485.914 447.046C483.716 447.089 481.57 446.375 479.835 445.025C474.018 440.455 468.448 437.432 458.837 437.432C439.614 437.432 424.678 453.883 424.678 472.602C424.678 486.523 435.045 494.362 447.697 494.362C454.532 494.362 459.838 492.604 463.897 490.829L468.185 476.152H457.062C452.248 476.152 448.452 472.356 448.452 467.54C448.452 462.724 452.248 458.928 457.062 458.928H480.327C486.916 458.928 490.448 463.743 488.427 471.583L481.346 496.383ZM291.873 502.464C290.116 508.792 286.057 512.325 280.733 512.325C274.161 512.325 270.629 507.526 272.65 499.424L284.036 456.66C285.794 450.333 289.835 446.8 295.159 446.8C301.731 446.8 305.28 451.598 303.242 459.701L291.873 502.464ZM294.14 414.16C296.67 407.833 302.504 405.302 308.32 407.306C314.119 409.098 317.422 415.162 315.401 420.98C313.381 426.552 304.507 439.453 297.935 437.186C292.137 434.901 292.383 419.715 294.14 414.16ZM503.609 503.976C503.6 504.991 503.389 505.995 502.989 506.928C502.589 507.861 502.007 508.706 501.278 509.412C500.549 510.119 499.687 510.673 498.741 511.043C497.796 511.414 496.787 511.592 495.772 511.569C494.756 511.595 493.744 511.418 492.797 511.048C491.85 510.679 490.985 510.125 490.254 509.419C489.523 508.712 488.94 507.867 488.539 506.932C488.138 505.998 487.926 504.993 487.917 503.976C487.917 499.687 491.467 496.383 495.772 496.383C500.059 496.383 503.609 499.687 503.609 503.976ZM489.956 503.976C489.956 507.28 492.486 510.057 495.754 510.057C499.058 510.057 501.588 507.28 501.588 503.976C501.588 500.672 499.058 497.912 495.772 497.912C492.486 497.912 489.956 500.443 489.956 503.976ZM494.507 507.772H492.732V500.179C493.488 500.179 494.489 499.933 495.772 499.933C497.283 499.933 497.793 500.179 498.302 500.443C498.812 500.689 499.058 501.199 499.058 501.955C499.058 502.974 498.302 503.484 497.547 503.73C498.302 503.976 498.566 504.486 498.812 505.487C499.058 506.771 499.321 507.017 499.321 507.28H497.547C497.301 507.017 497.301 506.261 497.019 505.505C496.791 504.749 496.527 504.24 495.526 504.24H494.77V507.772H494.507ZM494.753 503.484H495.508C496.527 503.484 497.265 503.22 497.265 502.464C497.265 501.709 496.756 501.199 495.754 501.199H494.735L494.753 503.484Z" fill="#161616"/>
</svg>
