<svg width="934" height="187" viewBox="0 0 934 187" fill="none" xmlns="http://www.w3.org/2000/svg">
<path d="M152.161 101.643C144.376 101.331 137.371 96.5061 134.257 89.346C133.323 88.879 132.389 88.7233 131.455 88.879C130.521 88.879 129.587 89.0347 128.652 89.346C126.317 96.3504 119.934 101.176 112.617 101.643C112.15 102.577 111.994 103.511 111.994 104.6C111.994 105.534 112.15 106.624 112.617 107.402C115.575 108.18 117.91 110.204 119.156 113.006H70.7384L152.161 74.5587C152.628 73.6248 152.783 72.6909 152.628 71.7569C152.628 70.823 152.472 69.7334 152.161 68.9552C146.712 68.3325 138.928 61.6394 138.928 56.3471C138.305 55.5688 137.526 54.9462 136.592 54.6349C135.658 54.1679 134.724 54.0123 133.634 54.0123C130.676 59.3045 125.539 62.7289 119.623 63.3516H100.785C109.036 56.3471 119.779 47.1635 126.162 41.7155C132.545 36.2676 138.149 32.0649 144.065 33.7771C144.999 33.4658 145.778 32.8432 146.4 32.0649C147.023 31.2866 147.646 30.5084 147.957 29.5744C142.197 22.4143 141.574 12.2967 146.4 4.35832C146.089 3.58005 145.622 2.80177 144.843 2.3348C144.221 1.71218 143.442 1.24521 142.508 1.08956C135.191 6.84879 125.072 7.31576 117.288 2.3348C116.354 2.80177 115.575 3.42438 114.952 4.20266C114.33 4.82528 113.707 5.75922 113.551 6.69315C117.91 13.075 116.821 19.9238 107.635 29.2631C101.719 35.178 85.8397 49.9652 77.1214 57.9036C68.5589 49.9652 52.8349 35.3337 46.6076 29.2631C37.2666 19.9238 36.3325 13.075 40.6916 6.69315C40.3802 5.75922 39.9132 4.82528 39.2905 4.20266C38.6677 3.42438 37.8893 2.80177 36.9552 2.3348C29.1711 7.31576 19.0517 6.69314 11.7346 1.08956C10.8005 1.24521 10.0221 1.71218 9.39936 2.3348C8.62094 2.80177 8.15389 3.58005 7.84253 4.35832C12.6687 12.2967 12.046 22.2586 6.2857 29.5744C6.59706 30.5084 7.06411 31.4423 7.84253 32.0649C8.46526 32.8432 9.24367 33.4658 10.1778 33.7771C16.7165 31.9092 21.2313 35.4893 28.0813 41.7155C34.9314 47.9417 45.2064 56.3471 53.4576 63.3516H40.2246C31.5063 63.3516 17.0278 62.8846 10.3335 58.215C9.39935 58.6819 8.62094 59.3045 7.99821 60.0828C7.37548 60.8611 6.90843 61.6394 6.59706 62.5733C9.39935 66.9316 10.6448 71.9126 10.4891 77.0492C10.1778 82.0302 6.90843 86.2329 2.23795 87.7894C1.7709 88.7233 1.61521 89.6573 1.61521 90.5912C1.61521 91.5251 1.7709 92.6147 2.23795 93.5486C10.0221 93.8599 17.0278 98.6853 20.1415 105.845C21.0756 106.312 22.0097 106.468 22.9438 106.312C23.8779 106.312 24.812 106.157 25.7461 105.845C28.0813 98.8409 34.4643 94.0156 41.7814 93.5486C42.2484 92.6147 42.4041 91.6808 42.4041 90.5912C42.4041 89.6573 42.2484 88.7233 41.7814 87.7894C38.8234 87.0111 36.4882 84.9876 35.2427 82.1858H82.1033L0.525424 120.321C0.058375 121.255 -0.0973007 122.189 0.0583822 123.123C0.0583822 124.213 0.214067 125.147 0.681116 126.081C6.13002 126.859 13.9142 133.396 13.9142 138.689C14.5369 139.467 15.3153 140.089 16.2494 140.401C17.1835 140.868 18.1176 141.023 19.2074 141.023C22.0097 135.887 27.1472 132.462 32.9075 131.84H65.6009V146.627C65.6009 151.919 64.3554 160.947 56.8826 162.815C56.4156 163.749 56.2599 164.683 56.2599 165.617C56.2599 166.551 56.4156 167.64 56.8826 168.574C66.0679 170.131 73.2293 177.291 74.7862 186.475C75.5646 186.942 76.4987 187.097 77.2771 186.942C78.2112 187.097 79.1453 186.786 79.768 186.475C81.3249 177.291 88.4863 170.131 97.6716 168.574C98.1386 167.64 98.2943 166.707 98.2943 165.617C98.2943 164.683 98.1386 163.749 97.6716 162.815C91.7556 161.414 88.9533 154.877 88.9533 146.627V131.84H114.174C122.892 131.84 137.371 132.307 144.065 136.976C144.999 136.509 145.778 135.887 146.4 135.109C147.023 134.486 147.646 133.552 147.801 132.618C144.999 128.26 143.598 123.279 143.909 118.142C144.221 113.317 147.334 109.114 152.005 107.402C152.472 106.468 152.628 105.534 152.628 104.6C152.783 103.666 152.628 102.577 152.161 101.643Z" fill="#161616"/>
<path d="M199.021 26.3057V2.49044H271.881V28.6405L221.284 138.377H271.881V162.192H192.794V136.042L244.013 26.15H199.021V26.3057Z" fill="#161616"/>
<path d="M287.916 41.0929C287.916 18.523 301.149 0 330.106 0C359.063 0 372.296 18.3673 372.296 41.0929V123.59C372.296 146.16 359.063 164.683 330.106 164.683C301.149 164.683 287.916 146.316 287.916 123.59V41.0929ZM315.316 122.967C315.316 134.953 318.897 140.868 329.95 140.868C341.004 140.868 344.585 134.953 344.585 122.967V41.7155C344.585 29.7301 341.004 23.8152 329.95 23.8152C318.897 23.8152 315.316 29.7301 315.316 41.7155V122.967Z" fill="#161616"/>
<path d="M393.936 41.0929C393.936 18.523 407.169 0 436.126 0C465.083 0 478.161 18.3673 478.161 41.0929V123.59C478.161 146.16 464.927 164.683 435.97 164.683C407.013 164.683 393.78 146.316 393.78 123.59V41.0929H393.936ZM421.336 122.967C421.336 134.953 424.917 140.868 435.97 140.868C447.024 140.868 450.605 134.953 450.605 122.967V41.7155C450.605 29.7301 447.024 23.8152 435.97 23.8152C424.917 23.8152 421.336 29.7301 421.336 41.7155V122.967Z" fill="#161616"/>
<path d="M578.265 162.348H550.709V95.8834L517.393 2.49044H545.26L564.565 63.5072H565.032L583.402 2.49044H611.581L578.109 95.8834V162.348H578.265Z" fill="#161616"/>
<path d="M622.167 41.0929C622.167 18.523 635.4 0 664.357 0C693.159 0 706.547 18.3673 706.547 41.0929V123.59C706.547 146.16 693.314 164.683 664.357 164.683C635.556 164.683 622.167 146.316 622.167 123.59V41.0929ZM649.723 122.967C649.723 134.953 653.304 140.868 664.357 140.868C675.411 140.868 678.992 134.953 678.992 122.967V41.7155C678.992 29.7301 675.411 23.8152 664.357 23.8152C653.304 23.8152 649.723 29.7301 649.723 41.7155V122.967Z" fill="#161616"/>
<path d="M728.187 162.348V2.49044H766.797C797.622 2.49044 813.346 15.5655 813.346 49.8096C813.346 75.4926 803.382 85.9215 794.041 90.2799L817.394 162.815H789.526L770.066 96.5061C765.396 96.9731 760.569 97.1287 755.899 97.1287V162.815V162.348H728.187ZM755.743 74.0917H765.551C780.341 74.0917 785.946 68.4882 785.946 49.4983C785.946 30.3527 780.341 24.9048 765.551 24.9048H755.743V74.0917Z" fill="#161616"/>
<path d="M834.83 162.348V2.49044H862.23V61.6393H862.697L891.654 2.49044H919.21L889.319 62.1063L922.791 162.659H894.924L872.505 88.1007H872.038L862.23 106.001V162.348H834.83Z" fill="#161616"/>
<path d="M924.348 7.00445C924.348 4.35832 926.527 2.17916 929.174 2.17916C931.82 2.17916 934 4.35832 934 7.00445C934 9.65059 931.976 11.6741 929.33 11.8298C926.527 11.8298 924.348 9.65059 924.348 7.00445ZM933.066 7.00445C933.066 4.82528 931.198 3.11309 929.018 3.26874C926.839 3.26874 925.126 5.13659 925.282 7.31576C925.282 9.33927 926.994 11.0515 929.174 11.0515C931.353 11.0515 933.066 9.33929 933.066 7.16012V7.00445ZM928.24 9.80625H927.461V4.20266H929.641C930.419 4.047 931.353 4.51399 931.509 5.29226C931.509 5.44792 931.509 5.60355 931.509 5.75921C931.509 6.53748 931.042 7.31576 930.264 7.31576L931.82 9.80625H930.731L929.174 7.31576H928.084V9.80625H928.24ZM928.24 6.69315H929.174C930.264 6.69315 930.575 6.69314 930.575 5.75921C930.575 4.82528 930.264 4.98093 929.33 4.98093H927.928V6.84881L928.24 6.69315Z" fill="#161616"/>
</svg>
